<svg width="256" height="256" viewBox="0 0 256 256" fill="none" xmlns="http://www.w3.org/2000/svg">
<g clip-path="url(#clip0)">
<path d="M29.8667 126.233V74.6666C29.8667 66.4312 23.1688 59.7333 14.9333 59.7333C6.69792 59.7333 0 66.4312 0 74.6666V168.533C0 169.49 0.320833 170.41 0.908333 171.162L38.4 219.073V251.733C38.4 254.094 40.3063 256 42.6667 256H81.0667C83.4271 256 85.3333 254.094 85.3333 251.733V183.467C85.3333 182.331 84.8854 181.248 84.0833 180.45L29.8667 126.233ZM76.8 247.467H46.9333V217.6C46.9333 216.644 46.6125 215.723 46.025 214.971L8.53333 167.06V74.6666C8.53333 71.1374 11.4042 68.2666 14.9333 68.2666C18.4625 68.2666 21.3333 71.1374 21.3333 74.6666V128C21.3333 129.135 21.7813 130.219 22.5833 131.017L28.7667 137.204C22.0125 139.204 17.0667 145.473 17.0667 152.867C17.0667 157.227 18.7646 161.331 21.85 164.417L48.1833 190.75L54.2167 184.717L27.8833 158.383C26.4313 156.931 25.6 154.923 25.6 152.867C25.6 148.565 29.0979 145.067 33.4 145.067C35.4438 145.067 37.4479 145.89 38.9 147.337L76.8 185.233V247.467Z" fill="white"/>
<path d="M241.067 59.7333C232.832 59.7333 226.134 66.4312 226.134 74.6666V126.233L171.917 180.45C171.115 181.248 170.667 182.331 170.667 183.467V251.733C170.667 254.094 172.573 256 174.934 256H213.334C215.694 256 217.6 254.094 217.6 251.733V219.073L255.092 171.162C255.679 170.41 256 169.49 256 168.533V74.6666C256 66.4312 249.302 59.7333 241.067 59.7333ZM247.467 167.06L209.975 214.971C209.388 215.723 209.067 216.644 209.067 217.6V247.467H179.2V185.233L217.1 147.337C218.552 145.89 220.557 145.067 222.6 145.067C226.902 145.067 230.4 148.565 230.4 152.867C230.4 154.919 229.569 156.931 228.117 158.383L201.784 184.717L207.817 190.75L234.15 164.417C237.236 161.331 238.934 157.231 238.934 152.867C238.934 145.473 233.988 139.204 227.234 137.204L233.417 131.017C234.219 130.219 234.667 129.135 234.667 128V74.6666C234.667 71.1374 237.538 68.2666 241.067 68.2666C244.596 68.2666 247.467 71.1374 247.467 74.6666V167.06Z" fill="white"/>
<path d="M106.3 65.2979L102.706 84.5521C102.416 86.1354 103.031 87.7479 104.312 88.7292C105.595 89.7063 107.306 89.8771 108.762 89.1771L128 79.8729L147.237 89.1771C147.831 89.4583 148.462 89.6042 149.097 89.6042C150.02 89.6042 150.933 89.3104 151.687 88.7292C152.968 87.7521 153.583 86.1396 153.293 84.5521L149.7 65.2979L164.983 51.5917C166.22 50.4833 166.697 48.75 166.212 47.1604C165.72 45.5688 164.347 44.4083 162.7 44.1896L141.277 41.3229L131.762 23.5854C130.279 20.8125 125.729 20.8125 124.245 23.5854L114.731 41.3229L93.3079 44.1896C91.6558 44.4125 90.287 45.5688 89.7954 47.1604C89.31 48.75 89.787 50.4833 91.0245 51.5917L106.3 65.2979ZM118.02 49.4938C119.377 49.3104 120.566 48.4917 121.212 47.2792L128 34.6292L134.787 47.2792C135.433 48.4854 136.622 49.3104 137.979 49.4938L152.395 51.4208L142.216 60.5479C141.106 61.5375 140.6 63.0396 140.872 64.5083L143.356 77.8188L129.86 71.2917C129.27 71.0104 128.639 70.8646 128 70.8646C127.36 70.8646 126.729 71.0063 126.139 71.2917L112.643 77.8188L115.127 64.5083C115.395 63.0396 114.887 61.5417 113.783 60.5479L103.604 51.4208L118.02 49.4938Z" fill="white"/>
<path d="M191.519 142.771C192.257 141.358 192.142 139.66 191.232 138.354L171.782 110.558C184.192 98.875 192.001 82.35 192.001 64C192.001 28.7104 163.29 0 128.001 0C92.711 0 64.0006 28.7104 64.0006 64C64.0006 82.35 71.8089 98.875 84.2193 110.558L64.7693 138.354C63.8547 139.66 63.7443 141.358 64.4818 142.771C65.2172 144.183 66.6756 145.067 68.2672 145.067H91.2297L102.853 168.306C103.573 169.758 105.055 170.667 106.667 170.667C106.719 170.667 106.761 170.667 106.813 170.663C108.484 170.606 109.961 169.583 110.605 168.042L127.305 127.967C127.54 127.967 127.765 128 128.001 128C128.236 128 128.461 127.967 128.696 127.967L145.396 168.042C146.036 169.583 147.517 170.61 149.188 170.663C149.24 170.667 149.282 170.667 149.334 170.667C150.946 170.667 152.428 169.758 153.153 168.306L164.771 145.067H187.734C189.326 145.067 190.784 144.183 191.519 142.771ZM72.5339 64C72.5339 33.4167 97.4172 8.53333 128.001 8.53333C158.584 8.53333 183.467 33.4167 183.467 64C183.467 94.5833 158.584 119.467 128.001 119.467C97.4172 119.467 72.5339 94.5833 72.5339 64ZM106.313 156.156L97.686 138.894C96.961 137.446 95.4839 136.533 93.8672 136.533H76.4589L90.8297 115.998C98.8422 121.742 108.215 125.654 118.384 127.198L106.313 156.156ZM162.134 136.533C160.517 136.533 159.04 137.446 158.315 138.894L149.688 156.156L137.617 127.198C147.782 125.654 157.159 121.746 165.171 115.998L179.542 136.533H162.134Z" fill="#08175A"/>
<path d="M123.733 98.1333H132.267V106.667H123.733V98.1333Z" fill="white"/>
<path d="M140.8 98.1333H149.333V106.667H140.8V98.1333Z" fill="white"/>
<path d="M106.667 98.1333H115.2V106.667H106.667V98.1333Z" fill="white"/>
</g>
<defs>
<clipPath id="clip0">
<rect width="256" height="256" fill="white"/>
</clipPath>
</defs>
</svg>
